PathFileType	4	(X/Y/Z)	C:\Users\italobelli\Desktop\GitHub\PTbot_officialCBL\Personal_Results\SHRUG22_noisy1.trc
DataRate	CameraRate	NumFrames	NumMarkers	Units	OrigDataRate	OrigDataStartFrame	OrigNumFrames
110.888889	110.888889	51	9	m	110.888889	251	500
Frame#	Time		gu		centelbow		EpL		centpxt8		centijc7		ij		ts		aa		ai
			X1	Y1	Z1	X2	Y2	Z2	X3	Y3	Z3	X4	Y4	Z4	X5	Y5	Z5	X6	Y6	Z6	X7	Y7	Z7	X8	Y8	Z8	X9	Y9	Z9

251	2.2545	-0.12631	0.050573	0.14962	-0.12446	-0.1808	0.21589	-0.12108	-0.16807	0.24528	-0.046816	-0.15316	-0.008669	-0.046816	0.031938	-0.008669	0	0	0	-0.13005	0.042266	0.014667	-0.15766	0.079525	0.12453	-0.14187	-0.063799	0.053478
252	2.2635	-0.12628	0.050584	0.14963	-0.12447	-0.18075	0.21614	-0.12108	-0.16803	0.24553	-0.046816	-0.15316	-0.008669	-0.046816	0.031938	-0.008669	0	0	0	-0.13005	0.042276	0.014667	-0.15764	0.079504	0.12454	-0.14187	-0.063799	0.05345
253	2.2725	-0.12625	0.050595	0.14964	-0.12447	-0.1807	0.21639	-0.12109	-0.16798	0.24578	-0.046816	-0.15316	-0.008669	-0.046816	0.031938	-0.008669	0	0	0	-0.13005	0.042287	0.014668	-0.15763	0.079484	0.12456	-0.14186	-0.0638	0.053422
254	2.2816	-0.12622	0.050606	0.14965	-0.12448	-0.18065	0.21663	-0.12109	-0.16794	0.24602	-0.046816	-0.15316	-0.008669	-0.046816	0.031938	-0.008669	0	0	0	-0.13005	0.042297	0.014669	-0.15761	0.079463	0.12457	-0.14186	-0.0638	0.053393
255	2.2906	-0.12619	0.050617	0.14967	-0.12449	-0.1806	0.21687	-0.1211	-0.16789	0.24627	-0.046816	-0.15316	-0.008669	-0.046816	0.031938	-0.008669	0	0	0	-0.13005	0.042308	0.01467	-0.15759	0.079441	0.12459	-0.14186	-0.0638	0.053363
256	2.2996	-0.12616	0.050627	0.14968	-0.1245	-0.18055	0.21711	-0.1211	-0.16785	0.24651	-0.046816	-0.15316	-0.008669	-0.046816	0.031938	-0.008669	0	0	0	-0.13005	0.042319	0.014671	-0.15757	0.07942	0.12461	-0.14186	-0.063801	0.053333
257	2.3086	-0.12612	0.050638	0.14969	-0.12451	-0.1805	0.21735	-0.1211	-0.16781	0.24675	-0.046816	-0.15316	-0.008669	-0.046816	0.031938	-0.008669	0	0	0	-0.13004	0.04233	0.014673	-0.15755	0.079398	0.12462	-0.14186	-0.063801	0.053302
258	2.3176	-0.12609	0.050649	0.14971	-0.12452	-0.18045	0.21759	-0.12111	-0.16777	0.24699	-0.046816	-0.15316	-0.008669	-0.046816	0.031938	-0.008669	0	0	0	-0.13004	0.042341	0.014674	-0.15753	0.079376	0.12464	-0.14186	-0.063802	0.05327
259	2.3267	-0.12606	0.050659	0.14972	-0.12453	-0.1804	0.21782	-0.12111	-0.16773	0.24722	-0.046816	-0.15316	-0.008669	-0.046816	0.031938	-0.008669	0	0	0	-0.13004	0.042352	0.014676	-0.15752	0.079353	0.12466	-0.14186	-0.063802	0.053238
260	2.3357	-0.12603	0.050669	0.14973	-0.12453	-0.18036	0.21805	-0.12111	-0.16769	0.24746	-0.046816	-0.15316	-0.008669	-0.046816	0.031938	-0.008669	0	0	0	-0.13004	0.042364	0.014678	-0.1575	0.079331	0.12468	-0.14186	-0.063802	0.053205
261	2.3447	-0.126	0.050679	0.14975	-0.12454	-0.18031	0.21828	-0.12111	-0.16765	0.24768	-0.046816	-0.15316	-0.008669	-0.046816	0.031938	-0.008669	0	0	0	-0.13004	0.042375	0.01468	-0.15748	0.079308	0.1247	-0.14186	-0.063803	0.053171
262	2.3537	-0.12597	0.050689	0.14976	-0.12455	-0.18027	0.2185	-0.12111	-0.16762	0.24791	-0.046816	-0.15316	-0.008669	-0.046816	0.031938	-0.008669	0	0	0	-0.13004	0.042387	0.014683	-0.15746	0.079284	0.12472	-0.14186	-0.063803	0.053136
263	2.3627	-0.12594	0.050699	0.14978	-0.12455	-0.18023	0.21872	-0.12111	-0.16758	0.24813	-0.046816	-0.15316	-0.008669	-0.046816	0.031938	-0.008669	0	0	0	-0.13004	0.042399	0.014686	-0.15744	0.079261	0.12474	-0.14186	-0.063804	0.0531
264	2.3717	-0.12591	0.050708	0.14979	-0.12456	-0.18019	0.21893	-0.1211	-0.16755	0.24834	-0.046816	-0.15316	-0.008669	-0.046816	0.031938	-0.008669	0	0	0	-0.13004	0.042412	0.014688	-0.15742	0.079237	0.12476	-0.14186	-0.063804	0.053064
265	2.3808	-0.12587	0.050718	0.14981	-0.12456	-0.18015	0.21914	-0.1211	-0.16752	0.24855	-0.046816	-0.15316	-0.008669	-0.046816	0.031938	-0.008669	0	0	0	-0.13004	0.042424	0.014692	-0.1574	0.079212	0.12478	-0.14186	-0.063805	0.053027
266	2.3898	-0.12584	0.050727	0.14982	-0.12457	-0.18011	0.21934	-0.12109	-0.16748	0.24875	-0.046816	-0.15316	-0.008669	-0.046816	0.031938	-0.008669	0	0	0	-0.13004	0.042437	0.014695	-0.15738	0.079188	0.1248	-0.14186	-0.063805	0.052988
267	2.3988	-0.12581	0.050736	0.14984	-0.12457	-0.18008	0.21953	-0.12108	-0.16745	0.24895	-0.046816	-0.15316	-0.008669	-0.046816	0.031938	-0.008669	0	0	0	-0.13004	0.04245	0.014699	-0.15736	0.079163	0.12482	-0.14186	-0.063806	0.052949
268	2.4078	-0.12578	0.050744	0.14985	-0.12457	-0.18004	0.21972	-0.12107	-0.16743	0.24914	-0.046816	-0.15316	-0.008669	-0.046816	0.031938	-0.008669	0	0	0	-0.13004	0.042463	0.014703	-0.15734	0.079137	0.12485	-0.14186	-0.063806	0.05291
269	2.4168	-0.12575	0.050752	0.14987	-0.12457	-0.18001	0.2199	-0.12106	-0.1674	0.24933	-0.046816	-0.15316	-0.008669	-0.046816	0.031938	-0.008669	0	0	0	-0.13004	0.042476	0.014707	-0.15732	0.079112	0.12487	-0.14186	-0.063806	0.052869
270	2.4259	-0.12572	0.05076	0.14988	-0.12457	-0.17998	0.22008	-0.12104	-0.16737	0.2495	-0.046816	-0.15316	-0.008669	-0.046816	0.031938	-0.008669	0	0	0	-0.13004	0.04249	0.014711	-0.1573	0.079086	0.12489	-0.14186	-0.063807	0.052827
271	2.4349	-0.12568	0.050768	0.1499	-0.12457	-0.17995	0.22025	-0.12103	-0.16735	0.24967	-0.046816	-0.15316	-0.008669	-0.046816	0.031938	-0.008669	0	0	0	-0.13004	0.042504	0.014716	-0.15728	0.079059	0.12492	-0.14186	-0.063807	0.052784
272	2.4439	-0.12565	0.050776	0.14991	-0.12457	-0.17993	0.2204	-0.12101	-0.16732	0.24984	-0.046816	-0.15316	-0.008669	-0.046816	0.031938	-0.008669	0	0	0	-0.13004	0.042518	0.014721	-0.15726	0.079032	0.12494	-0.14186	-0.063808	0.05274
273	2.4529	-0.12562	0.050783	0.14993	-0.12457	-0.1799	0.22056	-0.12099	-0.1673	0.24999	-0.046816	-0.15316	-0.008669	-0.046816	0.031938	-0.008669	0	0	0	-0.13004	0.042532	0.014727	-0.15724	0.079005	0.12497	-0.14186	-0.063808	0.052695
274	2.4619	-0.12559	0.05079	0.14995	-0.12456	-0.17988	0.2207	-0.12097	-0.16728	0.25013	-0.046816	-0.15316	-0.008669	-0.046816	0.031938	-0.008669	0	0	0	-0.13004	0.042547	0.014732	-0.15722	0.078977	0.12499	-0.14186	-0.063809	0.052649
275	2.4709	-0.12555	0.050796	0.14996	-0.12455	-0.17986	0.22083	-0.12094	-0.16727	0.25027	-0.046816	-0.15316	-0.008669	-0.046816	0.031938	-0.008669	0	0	0	-0.13004	0.042562	0.014738	-0.1572	0.078949	0.12502	-0.14186	-0.063809	0.052603
276	2.48	-0.12552	0.050802	0.14998	-0.12455	-0.17984	0.22095	-0.12091	-0.16725	0.2504	-0.046816	-0.15316	-0.008669	-0.046816	0.031938	-0.008669	0	0	0	-0.13004	0.042577	0.014745	-0.15718	0.078921	0.12505	-0.14186	-0.06381	0.052555
277	2.489	-0.12549	0.050808	0.15	-0.12453	-0.17983	0.22107	-0.12088	-0.16724	0.25051	-0.046816	-0.15316	-0.008669	-0.046816	0.031938	-0.008669	0	0	0	-0.13004	0.042593	0.014751	-0.15716	0.078892	0.12507	-0.14186	-0.06381	0.052506
278	2.498	-0.12546	0.050814	0.15002	-0.12452	-0.17981	0.22117	-0.12085	-0.16722	0.25062	-0.046816	-0.15316	-0.008669	-0.046816	0.031938	-0.008669	0	0	0	-0.13004	0.042608	0.014758	-0.15713	0.078863	0.1251	-0.14186	-0.063811	0.052455
279	2.507	-0.12542	0.050814	0.15003	-0.12451	-0.17981	0.22126	-0.12081	-0.16722	0.25071	-0.046816	-0.15316	-0.008669	-0.046816	0.031938	-0.008669	0	0	0	-0.13004	0.042626	0.014767	-0.15711	0.07883	0.12514	-0.14186	-0.063811	0.052402
280	2.516	-0.12539	0.050799	0.15005	-0.12449	-0.17983	0.22134	-0.12076	-0.16724	0.2508	-0.046816	-0.15316	-0.008669	-0.046816	0.031938	-0.008669	0	0	0	-0.13004	0.042651	0.01478	-0.15709	0.078789	0.12518	-0.14186	-0.063812	0.052339
281	2.5251	-0.12536	0.050769	0.15007	-0.12446	-0.17988	0.22141	-0.1207	-0.16729	0.25087	-0.046816	-0.15316	-0.008669	-0.046816	0.031938	-0.008669	0	0	0	-0.13005	0.042681	0.014797	-0.15706	0.078739	0.12523	-0.14187	-0.063813	0.052267
282	2.5341	-0.12533	0.050723	0.15009	-0.12443	-0.17995	0.22147	-0.12064	-0.16737	0.25094	-0.046816	-0.15316	-0.008669	-0.046816	0.031938	-0.008669	0	0	0	-0.13006	0.042717	0.014818	-0.15702	0.07868	0.12529	-0.14187	-0.063814	0.052188
283	2.5431	-0.12529	0.050663	0.15011	-0.12439	-0.18005	0.22152	-0.12056	-0.16747	0.25099	-0.046816	-0.15316	-0.008669	-0.046816	0.031938	-0.008669	0	0	0	-0.13006	0.042759	0.014844	-0.15699	0.078612	0.12536	-0.14188	-0.063815	0.052099
284	2.5521	-0.12526	0.050588	0.15012	-0.12435	-0.18017	0.22156	-0.12048	-0.1676	0.25103	-0.046816	-0.15316	-0.008669	-0.046816	0.031938	-0.008669	0	0	0	-0.13007	0.042807	0.014874	-0.15695	0.078536	0.12544	-0.14188	-0.063816	0.052003
285	2.5611	-0.12523	0.050499	0.15014	-0.12431	-0.18031	0.22159	-0.12038	-0.16775	0.25107	-0.046816	-0.15316	-0.008669	-0.046816	0.031938	-0.008669	0	0	0	-0.13008	0.042859	0.014908	-0.15691	0.078452	0.12552	-0.14189	-0.063818	0.0519
286	2.5701	-0.12519	0.050396	0.15016	-0.12426	-0.18047	0.22162	-0.12028	-0.16792	0.25109	-0.046816	-0.15316	-0.008669	-0.046816	0.031938	-0.008669	0	0	0	-0.1301	0.042916	0.014946	-0.15686	0.078359	0.12562	-0.1419	-0.063819	0.051789
287	2.5792	-0.12516	0.05028	0.15018	-0.12421	-0.18066	0.22163	-0.12018	-0.16812	0.2511	-0.046816	-0.15316	-0.008669	-0.046816	0.031938	-0.008669	0	0	0	-0.13011	0.042978	0.014988	-0.15682	0.078259	0.12572	-0.14191	-0.063821	0.05167
288	2.5882	-0.12513	0.05015	0.1502	-0.12415	-0.18087	0.22163	-0.12006	-0.16833	0.25111	-0.046816	-0.15316	-0.008669	-0.046816	0.031938	-0.008669	0	0	0	-0.13013	0.043045	0.015033	-0.15677	0.07815	0.12583	-0.14193	-0.063822	0.051546
289	2.5972	-0.12509	0.050007	0.15022	-0.12409	-0.1811	0.22162	-0.11994	-0.16858	0.2511	-0.046816	-0.15316	-0.008669	-0.046816	0.031938	-0.008669	0	0	0	-0.13014	0.043115	0.015083	-0.15671	0.078034	0.12595	-0.14194	-0.063824	0.051414
290	2.6062	-0.12506	0.049852	0.15024	-0.12402	-0.18135	0.2216	-0.11981	-0.16884	0.25109	-0.046816	-0.15316	-0.008669	-0.046816	0.031938	-0.008669	0	0	0	-0.13016	0.043189	0.015136	-0.15666	0.077911	0.12608	-0.14195	-0.063826	0.051277
291	2.6152	-0.12502	0.049684	0.15026	-0.12396	-0.18162	0.22158	-0.11968	-0.16912	0.25106	-0.046816	-0.15316	-0.008669	-0.046816	0.031938	-0.008669	0	0	0	-0.13018	0.043267	0.015193	-0.1566	0.07778	0.12621	-0.14197	-0.063828	0.051133
292	2.6242	-0.12499	0.049505	0.15028	-0.12389	-0.18191	0.22154	-0.11954	-0.16942	0.25103	-0.046816	-0.15316	-0.008669	-0.046816	0.031938	-0.008669	0	0	0	-0.1302	0.043349	0.015254	-0.15653	0.077641	0.12635	-0.14199	-0.06383	0.050984
293	2.6333	-0.12495	0.049313	0.1503	-0.12381	-0.18222	0.2215	-0.1194	-0.16974	0.25099	-0.046816	-0.15316	-0.008669	-0.046816	0.031938	-0.008669	0	0	0	-0.13023	0.043433	0.015318	-0.15647	0.077496	0.1265	-0.14201	-0.063833	0.050829
294	2.6423	-0.12492	0.049111	0.15032	-0.12374	-0.18254	0.22145	-0.11926	-0.17008	0.25094	-0.046816	-0.15316	-0.008669	-0.046816	0.031938	-0.008669	0	0	0	-0.13025	0.04352	0.015385	-0.1564	0.077343	0.12665	-0.14203	-0.063835	0.05067
295	2.6513	-0.12488	0.048897	0.15034	-0.12366	-0.18288	0.22139	-0.1191	-0.17044	0.25088	-0.046816	-0.15316	-0.008669	-0.046816	0.031938	-0.008669	0	0	0	-0.13028	0.04361	0.015456	-0.15633	0.077184	0.12681	-0.14205	-0.063838	0.050505
296	2.6603	-0.12484	0.048673	0.15036	-0.12358	-0.18324	0.22132	-0.11895	-0.17081	0.25081	-0.046816	-0.15316	-0.008669	-0.046816	0.031938	-0.008669	0	0	0	-0.1303	0.043702	0.015531	-0.15626	0.077018	0.12698	-0.14207	-0.063841	0.050337
297	2.6693	-0.1248	0.048438	0.15038	-0.1235	-0.18361	0.22124	-0.11879	-0.1712	0.25074	-0.046816	-0.15316	-0.008669	-0.046816	0.031938	-0.008669	0	0	0	-0.13033	0.043797	0.015608	-0.15618	0.076846	0.12716	-0.1421	-0.063844	0.050164
298	2.6784	-0.12477	0.048193	0.15041	-0.12341	-0.184	0.22116	-0.11863	-0.17161	0.25066	-0.046816	-0.15316	-0.008669	-0.046816	0.031938	-0.008669	0	0	0	-0.13036	0.043893	0.015689	-0.1561	0.076667	0.12733	-0.14212	-0.063847	0.049987
299	2.6874	-0.12473	0.047938	0.15043	-0.12333	-0.1844	0.22107	-0.11847	-0.17203	0.25057	-0.046816	-0.15316	-0.008669	-0.046816	0.031938	-0.008669	0	0	0	-0.13039	0.04399	0.015773	-0.15602	0.076482	0.12752	-0.14215	-0.06385	0.049806
300	2.6964	-0.12469	0.047674	0.15045	-0.12324	-0.18482	0.22097	-0.1183	-0.17247	0.25047	-0.046816	-0.15316	-0.008669	-0.046816	0.031938	-0.008669	0	0	0	-0.13042	0.044089	0.01586	-0.15593	0.076291	0.12771	-0.14217	-0.063853	0.049622
301	2.7054	-0.12465	0.047401	0.15047	-0.12315	-0.18525	0.22086	-0.11813	-0.17292	0.25036	-0.046816	-0.15316	-0.008669	-0.046816	0.031938	-0.008669	0	0	0	-0.13045	0.04419	0.015951	-0.15585	0.076094	0.12791	-0.1422	-0.063856	0.049435
